<svg width="22" height="22" viewBox="0 0 22 22" fill="none" xmlns="http://www.w3.org/2000/svg">
  <path d="M2 6H0V20C0 21.1 0.9 22 2 22H16V20H2V6ZM18 2H6C4.9 2 4 2.9 4 4V16C4 17.1 4.9 18 6 18H18C19.1 18 20 17.1 20 16V4C20 2.9 19.1 2 18 2ZM18 16H6V4H18V16ZM10 5.5V14.5L16 10L10 5.5Z" fill="#8C8787"/>
  <circle cx="17" cy="5" r="5" fill="#E50914"/>
  <path d="M17.6486 8H18.5095V6.85889H19.3022V6.10615H18.5095V2.22236H17.2122C15.9109 4.1042 15.2543 5.14121 14.7578 6.07412V6.85889H17.6486V8ZM15.5946 6.09814C16.0551 5.26133 16.6396 4.36045 17.6406 2.91504H17.6566V6.11816H15.5946V6.09814Z" fill="white"/>
  </svg>
  